<svg width="14" height="14" viewBox="0 0 14 14" fill="none" xmlns="http://www.w3.org/2000/svg">
<path d="M7.00472 0C8.13714 0 9.26524 0.279346 10.2676 0.807823C13.6803 2.60847 14.9927 6.84984 13.1933 10.2637C11.9659 12.5916 9.54942 14 6.99671 14C6.498 14 5.99436 13.9464 5.49319 13.8354C5.21085 13.7725 5.0327 13.4925 5.09496 13.2101C5.15722 12.9276 5.43647 12.7506 5.72066 12.8117C8.32762 13.3914 11.019 12.1402 12.2661 9.77466C13.7961 6.87266 12.6804 3.26582 9.77874 1.73528C8.92681 1.28573 7.96761 1.04832 7.0041 1.04832H6.99732C3.71719 1.04832 1.04797 3.71783 1.04797 6.99907C1.04674 7.9549 1.27975 8.9064 1.72175 9.75184L1.85613 10.0145C2.02073 10.3229 2.0571 10.7058 1.95045 11.0524C1.80312 11.4409 1.68045 11.8189 1.57935 12.195C1.97264 12.0766 2.45286 11.9021 2.79992 11.7757L2.94232 11.7245C3.21171 11.624 3.51438 11.7665 3.61301 12.039C3.71165 12.311 3.57048 12.6119 3.29863 12.71L3.15807 12.7611L3.13415 12.7698C2.61738 12.9571 1.92154 13.2092 1.44928 13.3149C1.40859 13.3235 1.36482 13.3291 1.32475 13.3278C1.00297 13.3278 0.806937 13.1977 0.699058 13.088C0.533233 12.9196 0.454327 12.6834 0.463574 12.3862C0.464807 12.3523 0.469122 12.3171 0.477136 12.2832C0.601659 11.7529 0.763785 11.2238 0.959816 10.7114C0.973994 10.6614 0.965364 10.5708 0.925295 10.4949L0.790292 10.2328C0.273091 9.24248 -0.00122876 8.12201 4.13761e-06 6.99846C4.13761e-06 3.13941 3.13897 0 6.99671 0H7.00472Z" fill="#233D4D"/>
<path d="M3.08244 6.99938C3.08244 6.53997 3.45539 6.16689 3.91464 6.16689C4.3739 6.16689 4.74685 6.53997 4.74685 6.99938C4.74685 7.45818 4.3739 7.83126 3.91464 7.83126C3.45539 7.83126 3.08244 7.45818 3.08244 6.99938Z" fill="#233D4D"/>
<path d="M7.82916 6.99914C7.82916 6.54034 7.45621 6.16665 6.99695 6.16665C6.5377 6.16665 6.16475 6.54034 6.16475 6.99914C6.16475 7.45793 6.5377 7.83163 6.99695 7.83163C7.45621 7.83163 7.82916 7.45793 7.82916 6.99914Z" fill="#233D4D"/>
<path d="M10.0792 6.16665C10.5385 6.16665 10.9114 6.54034 10.9114 6.99914C10.9114 7.45793 10.5385 7.83163 10.0792 7.83163C9.61995 7.83163 9.24699 7.45793 9.24699 6.99914C9.24699 6.54034 9.61995 6.16665 10.0792 6.16665Z" fill="#233D4D"/>
</svg>
