<svg width="20" height="20" viewBox="0 0 20 20" fill="none" xmlns="http://www.w3.org/2000/svg">
<path fill-rule="evenodd" clip-rule="evenodd" d="M9.99167 0C7.27727 0 6.93589 0 5.87011 0.0584063C4.81266 0.108469 4.07993 0.275344 3.45545 0.525657C2.78934 0.77597 2.22315 1.12641 1.66528 1.66875C1.13239 2.25282 0.791008 2.8035 0.532889 3.46266C0.283097 4.09679 0.11657 4.83104 0.0666112 5.88235C0 6.96704 0 7.30079 0 10.0125C0 12.7242 0 13.0747 0.0582848 14.1427C0.108243 15.2023 0.274771 15.9366 0.524563 16.5624C0.774355 17.2299 1.12406 17.7889 1.67361 18.3479C2.25645 18.8652 2.82265 19.2073 3.48043 19.466C4.11324 19.7163 4.84596 19.8832 5.89509 19.9333C6.97752 19.9917 7.31058 20 10.025 20C12.7394 20 13.0891 20 14.1549 19.9333C15.204 19.8832 15.9367 19.7163 16.5695 19.466C17.2356 19.2157 17.7852 18.8652 18.343 18.3146C18.8843 17.7472 19.2256 17.1882 19.4838 16.529C19.7336 15.8949 19.9001 15.1606 19.9417 14.1093C19.9917 13.0246 20 12.6909 20 9.9708C20 7.25073 20 6.90864 19.9417 5.84063C19.8918 4.79766 19.7252 4.06341 19.4754 3.42094C19.2256 2.75344 18.8593 2.2111 18.3097 1.65207C17.7352 1.08469 17.194 0.750939 16.5362 0.500626C15.9034 0.250313 15.1707 0.0834376 14.1216 0.0250313C13.0475 0 12.7144 0 9.99167 0ZM9.99107 1.802C12.6555 1.802 12.9719 1.802 14.0294 1.86041C15.0036 1.91047 15.5281 2.069 15.8862 2.21085C16.3524 2.37772 16.6855 2.603 17.0352 2.96178C17.3849 3.29554 17.6014 3.62929 17.7846 4.10488C17.9178 4.46366 18.076 4.98932 18.1176 5.96554C18.1759 7.0252 18.1842 7.34226 18.1842 10.0123C18.1842 12.6823 18.1842 12.9993 18.126 14.059C18.076 15.0352 17.9178 15.5609 17.7763 15.9196C17.6097 16.3869 17.3849 16.7206 17.0269 17.0711C16.6938 17.4215 16.3608 17.6385 15.8862 17.822C15.5281 17.9555 15.0036 18.1141 14.0294 18.1558C12.9719 18.2142 12.6555 18.2225 9.99107 18.2225C7.32663 18.2225 7.01023 18.2225 5.95277 18.1641C4.97859 18.1141 4.45402 17.9555 4.09599 17.8137C3.62971 17.6468 3.29665 17.4215 2.94695 17.0627C2.59724 16.729 2.38075 16.3952 2.19757 15.9196C2.06435 15.5609 1.90615 15.0352 1.86451 14.059C1.80623 12.9993 1.7979 12.6823 1.7979 10.0123C1.7979 7.34226 1.7979 7.0252 1.85619 5.96554C1.90615 4.98932 2.06435 4.46366 2.2059 4.10488C2.37242 3.63763 2.59724 3.30388 2.95527 2.95344C3.28833 2.603 3.62138 2.38607 4.09599 2.2025C4.45402 2.069 4.97859 1.91047 5.95277 1.86875C7.01023 1.81035 7.32663 1.802 9.99107 1.802ZM4.86277 10.0126C4.86277 7.17568 7.16085 4.8728 9.99183 4.8728C12.8228 4.8728 15.1209 7.17568 15.1209 10.0126C15.1209 12.8494 12.8228 15.1523 9.99183 15.1523C7.16085 15.1523 4.86277 12.8494 4.86277 10.0126ZM9.99174 13.3498C8.15994 13.3498 6.66118 11.8479 6.66118 10.0123C6.66118 8.17668 8.15994 6.6748 9.99174 6.6748C11.8235 6.6748 13.3223 8.17668 13.3223 10.0123C13.3223 11.8479 11.8235 13.3498 9.99174 13.3498ZM15.3284 5.86533C15.9862 5.86533 16.5274 5.33968 16.5274 4.67218L16.5691 4.63046C16.5691 3.9713 16.0278 3.42896 15.3617 3.42896C14.6956 3.42896 14.1627 3.99633 14.1627 4.66383C14.1627 5.33133 14.6623 5.86533 15.3284 5.86533Z" fill="#233D4D"/>
</svg>
