<svg width="45" height="43" viewBox="0 0 45 43" fill="none" xmlns="http://www.w3.org/2000/svg">
<g clip-path="url(#clip0_4_87)">
<path d="M22.2575 19.7517C24.698 19.7517 27.0386 20.6727 28.7643 22.312C30.49 23.9514 31.4596 26.1749 31.4596 28.4933V38.9833H13.0554V28.4933C13.0554 26.1749 14.0249 23.9514 15.7506 22.312C17.4763 20.6727 19.8169 19.7517 22.2575 19.7517ZM9.90459 25.0072C9.6117 25.9456 9.43869 26.9142 9.38927 27.8919L9.37455 28.4933V38.9833H3.8533V31.1158C3.85294 29.608 4.43861 28.1532 5.49796 27.0303C6.55732 25.9075 8.01577 25.1958 9.59356 25.0316L9.90643 25.0072H9.90459ZM34.6103 25.0072C36.2481 25.102 37.7862 25.7868 38.9107 26.922C40.0352 28.0571 40.6614 29.5571 40.6616 31.1158V38.9833H35.1404V28.4933C35.1404 27.2817 34.9563 26.1121 34.6103 25.0072ZM10.2948 14.5067C11.515 14.5067 12.6853 14.9672 13.5482 15.7868C14.411 16.6065 14.8958 17.7183 14.8958 18.8775C14.8958 20.0367 14.411 21.1485 13.5482 21.9681C12.6853 22.7878 11.515 23.2483 10.2948 23.2483C9.07449 23.2483 7.9042 22.7878 7.04133 21.9681C6.17847 21.1485 5.69372 20.0367 5.69372 18.8775C5.69372 17.7183 6.17847 16.6065 7.04133 15.7868C7.9042 14.9672 9.07449 14.5067 10.2948 14.5067ZM34.2202 14.5067C35.4404 14.5067 36.6107 14.9672 37.4736 15.7868C38.3365 16.6065 38.8212 17.7183 38.8212 18.8775C38.8212 20.0367 38.3365 21.1485 37.4736 21.9681C36.6107 22.7878 35.4404 23.2483 34.2202 23.2483C32.9999 23.2483 31.8296 22.7878 30.9667 21.9681C30.1039 21.1485 29.6191 20.0367 29.6191 18.8775C29.6191 17.7183 30.1039 16.6065 30.9667 15.7868C31.8296 14.9672 32.9999 14.5067 34.2202 14.5067ZM22.2575 4.01666C24.2099 4.01666 26.0824 4.75346 27.463 6.06496C28.8435 7.37647 29.6191 9.15525 29.6191 11.01C29.6191 12.8647 28.8435 14.6435 27.463 15.955C26.0824 17.2665 24.2099 18.0033 22.2575 18.0033C20.305 18.0033 18.4326 17.2665 17.052 15.955C15.6714 14.6435 14.8958 12.8647 14.8958 11.01C14.8958 9.15525 15.6714 7.37647 17.052 6.06496C18.4326 4.75346 20.305 4.01666 22.2575 4.01666Z" fill="#FFCE1C"/>
</g>
<defs>
<clipPath id="clip0_4_87">
<rect width="44.17" height="41.96" fill="white" transform="translate(0.172455 0.52002)"/>
</clipPath>
</defs>
</svg>
